<svg width="252" height="19" fill="none" xmlns="http://www.w3.org/2000/svg"><path fill-rule="evenodd" clip-rule="evenodd" d="M24.373 3c.064 0 .117.052.117.117v.122a.117.117 0 0 1-.117.117h-.134v.395a7.625 7.625 0 0 1 7.386 7.622 7.626 7.626 0 1 1-15.25 0 7.626 7.626 0 0 1 7.386-7.622v-.395h-.134a.117.117 0 0 1-.117-.117v-.122c0-.065.052-.117.117-.117h.746Zm-.182 1.75v.67a.191.191 0 0 1-.382 0v-.67a6.624 6.624 0 0 0-6.43 6.432h.669a.191.191 0 1 1 0 .382h-.67a6.625 6.625 0 0 0 6.43 6.432v-.67a.191.191 0 1 1 .383 0v.67a6.624 6.624 0 0 0 6.43-6.432h-.669a.191.191 0 0 1 0-.382h.67a6.623 6.623 0 0 0-6.43-6.431ZM24 11.018a.356.356 0 0 1 .35.415l2.266 2.05c.058.053.1.12.121.196l.03.111a.077.077 0 0 1-.086.096l-.114-.019a.412.412 0 0 1-.207-.1l-2.266-2.05a.356.356 0 1 1-.094-.699Z" fill="#fff"/><path d="M43.58 5.388c-.176-.888-.724-1.332-1.644-1.332-.712 0-1.244.276-1.596.828-.352.544-.524 1.444-.516 2.7.184-.416.488-.74.912-.972.432-.24.912-.36 1.44-.36.824 0 1.48.256 1.968.768.496.512.744 1.22.744 2.124 0 .544-.108 1.032-.324 1.464a2.386 2.386 0 0 1-.96 1.032c-.424.256-.94.384-1.548.384-.824 0-1.468-.184-1.932-.552-.464-.368-.788-.876-.972-1.524-.184-.648-.276-1.448-.276-2.4 0-2.936 1.024-4.404 3.072-4.404.784 0 1.4.212 1.848.636.448.424.712.96.792 1.608H43.58Zm-1.632 1.788c-.344 0-.668.072-.972.216a1.73 1.73 0 0 0-.744.636c-.184.28-.276.624-.276 1.032 0 .608.176 1.104.528 1.488.352.376.856.564 1.512.564.56 0 1.004-.172 1.332-.516.336-.352.504-.824.504-1.416 0-.624-.16-1.112-.48-1.464-.32-.36-.788-.54-1.404-.54Zm5.145-4.728-.144 2.388h-.756l-.156-2.388h1.056Zm1.91 0-.144 2.388h-.756l-.156-2.388h1.056Z" fill="#fff"/><path fill-rule="evenodd" clip-rule="evenodd" d="m70.64 13.596 7.383 4.29A7.774 7.774 0 0 1 74 19a7.6 7.6 0 0 1-3.36-.759v-4.645ZM70.046 9.4v8.533c-2.224-1.232-3.763-3.532-4-6.21l4-2.323ZM82 10.94v.071a7.91 7.91 0 0 1-3.408 6.519l-4-2.3L82 10.94Zm-4.047-6.873c2.225 1.232 3.763 3.532 4 6.21l-4 2.323V4.067Zm-8.545.403 4 2.299L66 11.036v-.024a7.922 7.922 0 0 1 3.408-6.542ZM74.001 3c1.206 0 2.343.26 3.36.759V8.38l-7.384-4.29A7.988 7.988 0 0 1 74 3Z" fill="#fff"/><path d="M91.6 6.324h-1.38V12h-1.092V6.324h-.852v-.9h.852v-.468c0-.736.188-1.272.564-1.608.384-.344.996-.516 1.836-.516v.912c-.48 0-.82.096-1.02.288-.192.184-.288.492-.288.924v.468h1.38v.9ZM96.953.696 93.665 14.04h-1.08L95.861.696h1.092Zm1.16 3.624v-.996h2.255V12h-1.104V4.32h-1.152Zm3.843 0v-.996h2.256V12h-1.104V4.32h-1.152Z" fill="#fff"/><path fill-rule="evenodd" clip-rule="evenodd" d="M150.899 3C152.612 3 154 4.4 154 6.125v9.75c0 1.726-1.388 3.125-3.101 3.125h-25.798c-1.713 0-3.101-1.4-3.101-3.125v-9.75C122 4.399 123.388 3 125.101 3h25.798ZM134.71 5.911c-.679 0-1.282.116-1.81.35-.528.232-.938.567-1.23 1.004-.292.437-.438.95-.438 1.539 0 .627.143 1.128.431 1.503.287.375.631.656 1.032.84.401.186.921.374 1.562.564.472.133.842.254 1.11.363.269.11.493.259.672.449.179.19.269.432.269.727 0 .36-.132.653-.396.876-.264.223-.627.335-1.089.335-.452 0-.808-.119-1.067-.356-.249-.228-.392-.535-.428-.92l-.004-.05h-2.121l.002.066c.02.58.184 1.086.493 1.516.321.447.757.789 1.308 1.026.552.238 1.171.357 1.859.357.726 0 1.353-.136 1.881-.406.528-.271.929-.635 1.202-1.09.273-.456.41-.95.41-1.482 0-.618-.146-1.117-.438-1.497a2.826 2.826 0 0 0-1.047-.855 11.43 11.43 0 0 0-1.569-.57 11.586 11.586 0 0 1-1.096-.377 1.99 1.99 0 0 1-.65-.428.9.9 0 0 1-.262-.662c0-.38.115-.67.346-.87.231-.2.54-.299.927-.299.443 0 .798.112 1.067.335.258.214.4.482.428.805l.003.043h2.178l-.005-.06c-.077-.865-.427-1.54-1.049-2.028-.636-.499-1.463-.748-2.481-.748Zm10.684 0c-.924 0-1.772.219-2.545.655a4.87 4.87 0 0 0-1.838 1.817c-.452.775-.679 1.646-.679 2.615 0 .979.227 1.855.679 2.63a4.871 4.871 0 0 0 1.838 1.816 5.081 5.081 0 0 0 2.545.656c.924 0 1.772-.219 2.545-.656a4.818 4.818 0 0 0 1.831-1.817c.448-.774.672-1.65.672-2.629 0-.969-.224-1.84-.672-2.615a4.827 4.827 0 0 0-1.824-1.816 5.07 5.07 0 0 0-2.552-.656Zm-16.632.143h-1.979V16h1.979V6.053Zm16.632 1.652c.594 0 1.117.133 1.57.4.452.265.806.648 1.06 1.147.255.498.382 1.08.382 1.745s-.127 1.25-.382 1.753c-.254.504-.608.89-1.06 1.161-.453.271-.976.406-1.57.406-.594 0-1.119-.135-1.576-.406a2.76 2.76 0 0 1-1.068-1.161c-.254-.503-.382-1.088-.382-1.753 0-.665.128-1.247.382-1.745.255-.5.61-.882 1.068-1.148.457-.266.982-.399 1.576-.399Z" fill="#fff"/><path d="M163.328 7.488c-.448-.176-.792-.432-1.032-.768s-.36-.744-.36-1.224c0-.432.108-.82.324-1.164.216-.352.536-.628.96-.828.432-.208.952-.312 1.56-.312.608 0 1.124.104 1.548.312.432.2.756.476.972.828.224.344.336.732.336 1.164 0 .464-.124.872-.372 1.224-.248.344-.588.6-1.02.768.496.152.888.42 1.176.804.296.376.444.832.444 1.368 0 .52-.128.976-.384 1.368-.256.384-.62.684-1.092.9-.464.208-1 .312-1.608.312-.608 0-1.144-.104-1.608-.312a2.573 2.573 0 0 1-1.068-.9c-.256-.392-.384-.848-.384-1.368 0-.536.144-.996.432-1.38.288-.384.68-.648 1.176-.792Zm3.252-1.86c0-.488-.16-.864-.48-1.128-.32-.264-.76-.396-1.32-.396-.552 0-.988.132-1.308.396-.32.264-.48.644-.48 1.14 0 .448.164.808.492 1.08.336.272.768.408 1.296.408.536 0 .968-.136 1.296-.408.336-.28.504-.644.504-1.092Zm-1.8 2.34c-.592 0-1.076.14-1.452.42-.376.272-.564.684-.564 1.236 0 .512.18.924.54 1.236.368.312.86.468 1.476.468s1.104-.156 1.464-.468c.36-.312.54-.724.54-1.236 0-.536-.184-.944-.552-1.224-.368-.288-.852-.432-1.452-.432Zm4.534-.396c0-1.376.224-2.448.672-3.216.448-.776 1.232-1.164 2.352-1.164 1.112 0 1.892.388 2.34 1.164.448.768.672 1.84.672 3.216 0 1.4-.224 2.488-.672 3.264-.448.776-1.228 1.164-2.34 1.164-1.12 0-1.904-.388-2.352-1.164-.448-.776-.672-1.864-.672-3.264Zm4.956 0c0-.696-.048-1.284-.144-1.764-.088-.488-.276-.88-.564-1.176-.28-.296-.688-.444-1.224-.444-.544 0-.96.148-1.248.444-.28.296-.468.688-.564 1.176-.088.48-.132 1.068-.132 1.764 0 .72.044 1.324.132 1.812.096.488.284.88.564 1.176.288.296.704.444 1.248.444.536 0 .944-.148 1.224-.444.288-.296.476-.688.564-1.176.096-.488.144-1.092.144-1.812Zm2.579 0c0-1.376.224-2.448.672-3.216.448-.776 1.232-1.164 2.352-1.164 1.112 0 1.892.388 2.34 1.164.448.768.672 1.84.672 3.216 0 1.4-.224 2.488-.672 3.264-.448.776-1.228 1.164-2.34 1.164-1.12 0-1.904-.388-2.352-1.164-.448-.776-.672-1.864-.672-3.264Zm4.956 0c0-.696-.048-1.284-.144-1.764-.088-.488-.276-.88-.564-1.176-.28-.296-.688-.444-1.224-.444-.544 0-.96.148-1.248.444-.28.296-.468.688-.564 1.176-.088.48-.132 1.068-.132 1.764 0 .72.044 1.324.132 1.812.096.488.284.88.564 1.176.288.296.704.444 1.248.444.536 0 .944-.148 1.224-.444.288-.296.476-.688.564-1.176.096-.488.144-1.092.144-1.812Z" fill="#fff"/><path fill-rule="evenodd" clip-rule="evenodd" d="M206 9.445c-.962 0-1.74-.745-1.74-1.664 0-.918.778-1.662 1.74-1.662.96 0 1.738.744 1.738 1.662 0 .92-.778 1.664-1.738 1.664ZM206 3c-2.761 0-5 2.14-5 4.78 0 1.928 2.659 7.691 4.099 10.67.354.733 1.445.733 1.802 0C208.339 15.47 211 9.708 211 7.78c0-2.64-2.239-4.78-5-4.78Z" fill="#fff"/><path d="M222.875 12h-1.001l-4.026-6.105V12h-1.001V4.322h1.001l4.026 6.094V4.322h1.001V12Zm7.206-3.245c0 .19-.011.392-.033.605h-4.818c.037.594.239 1.06.605 1.397.374.33.825.495 1.353.495.433 0 .792-.099 1.078-.297.294-.205.499-.477.616-.814h1.078a2.616 2.616 0 0 1-.968 1.419c-.484.36-1.085.539-1.804.539a3.078 3.078 0 0 1-1.54-.385 2.75 2.75 0 0 1-1.056-1.089c-.256-.477-.385-1.027-.385-1.65s.125-1.17.374-1.639c.25-.47.598-.829 1.045-1.078.455-.257.976-.385 1.562-.385.572 0 1.078.125 1.518.374.44.25.778.594 1.012 1.034.242.433.363.924.363 1.474Zm-1.034-.209c0-.381-.084-.708-.253-.979a1.585 1.585 0 0 0-.693-.627 2.066 2.066 0 0 0-.957-.22c-.506 0-.938.161-1.298.484-.352.323-.553.77-.605 1.342h3.806Zm3.357-1.463c.198-.345.491-.63.88-.858.396-.235.854-.352 1.375-.352.535 0 1.019.128 1.452.385.44.257.784.62 1.034 1.089.249.462.374 1.001.374 1.617 0 .609-.125 1.151-.374 1.628a2.756 2.756 0 0 1-2.486 1.507c-.514 0-.968-.114-1.364-.341a2.528 2.528 0 0 1-.891-.869v3.971h-1.001V5.972h1.001v1.111Zm4.092 1.881c0-.455-.092-.85-.275-1.188a1.9 1.9 0 0 0-.748-.77 2.025 2.025 0 0 0-1.023-.264c-.367 0-.708.092-1.023.275a1.967 1.967 0 0 0-.748.781c-.184.337-.275.73-.275 1.177 0 .455.091.854.275 1.199.19.337.44.598.748.781.315.176.656.264 1.023.264.374 0 .715-.088 1.023-.264.315-.183.564-.444.748-.781.183-.345.275-.748.275-1.21Zm1.966 0c0-.616.125-1.155.374-1.617.25-.47.591-.832 1.023-1.089.44-.257.928-.385 1.463-.385.528 0 .987.114 1.375.341.389.227.679.513.869.858v-1.1h1.012V12h-1.012v-1.122a2.387 2.387 0 0 1-.891.88c-.388.227-.843.341-1.364.341a2.734 2.734 0 0 1-1.452-.396 2.787 2.787 0 0 1-1.023-1.111c-.249-.477-.374-1.02-.374-1.628Zm5.104.011c0-.455-.091-.85-.275-1.188a1.887 1.887 0 0 0-.748-.77 1.962 1.962 0 0 0-1.023-.275c-.374 0-.715.088-1.023.264a1.92 1.92 0 0 0-.737.77c-.183.337-.275.733-.275 1.188 0 .462.092.865.275 1.21.184.337.429.598.737.781.308.176.649.264 1.023.264.374 0 .715-.088 1.023-.264.316-.183.565-.444.748-.781.184-.345.275-.744.275-1.199Zm3.705-5.115V12h-1.001V3.86h1.001Z" fill="#fff"/></svg>