<svg width="258" height="19" fill="none" xmlns="http://www.w3.org/2000/svg"><path fill-rule="evenodd" clip-rule="evenodd" d="M24.373 3c.064 0 .117.052.117.117v.122a.117.117 0 0 1-.117.117h-.134v.395a7.625 7.625 0 0 1 7.386 7.622 7.626 7.626 0 1 1-15.25 0 7.626 7.626 0 0 1 7.386-7.622v-.395h-.134a.117.117 0 0 1-.117-.117v-.122c0-.065.052-.117.117-.117h.746Zm-.182 1.75v.67a.191.191 0 0 1-.382 0v-.67a6.624 6.624 0 0 0-6.43 6.432h.669a.191.191 0 1 1 0 .382h-.67a6.625 6.625 0 0 0 6.43 6.432v-.67a.191.191 0 1 1 .383 0v.67a6.624 6.624 0 0 0 6.43-6.432h-.669a.191.191 0 0 1 0-.382h.67a6.623 6.623 0 0 0-6.43-6.431ZM24 11.018a.356.356 0 0 1 .35.415l2.266 2.05c.058.053.1.12.121.196l.03.111a.077.077 0 0 1-.086.096l-.114-.019a.412.412 0 0 1-.207-.1l-2.266-2.05a.356.356 0 1 1-.094-.699Z" fill="#fff"/><path d="M38.456 4.32v-.996h2.256V12h-1.104V4.32h-1.152Zm4.864-1.872-.144 2.388h-.756l-.156-2.388h1.056Zm1.91 0-.144 2.388h-.756l-.156-2.388h1.056Z" fill="#fff"/><path fill-rule="evenodd" clip-rule="evenodd" d="m66.64 13.596 7.383 4.29A7.774 7.774 0 0 1 70 19a7.6 7.6 0 0 1-3.36-.759v-4.645ZM66.046 9.4v8.533c-2.224-1.232-3.763-3.532-4-6.21l4-2.323ZM78 10.94v.071a7.91 7.91 0 0 1-3.408 6.519l-4-2.3L78 10.94Zm-4.047-6.873c2.225 1.232 3.763 3.532 4 6.21l-4 2.323V4.067Zm-8.545.403 4 2.299L62 11.036v-.024a7.922 7.922 0 0 1 3.408-6.542ZM70.001 3c1.206 0 2.343.26 3.36.759V8.38l-7.384-4.29A7.988 7.988 0 0 1 70 3Z" fill="#fff"/><path d="M87.6 6.324h-1.38V12h-1.092V6.324h-.852v-.9h.852v-.468c0-.736.188-1.272.564-1.608.384-.344.996-.516 1.836-.516v.912c-.48 0-.82.096-1.02.288-.192.184-.288.492-.288.924v.468h1.38v.9ZM92.953.696 89.665 14.04h-1.08L91.861.696h1.092Zm1.16 3.624v-.996h2.255V12h-1.104V4.32h-1.152Zm8.967 1.068c-.176-.888-.724-1.332-1.644-1.332-.712 0-1.244.276-1.596.828-.352.544-.524 1.444-.516 2.7.184-.416.488-.74.912-.972.432-.24.912-.36 1.44-.36.824 0 1.48.256 1.968.768.496.512.744 1.22.744 2.124 0 .544-.108 1.032-.324 1.464a2.386 2.386 0 0 1-.96 1.032c-.424.256-.94.384-1.548.384-.824 0-1.468-.184-1.932-.552-.464-.368-.788-.876-.972-1.524-.184-.648-.276-1.448-.276-2.4 0-2.936 1.024-4.404 3.072-4.404.784 0 1.4.212 1.848.636.448.424.712.96.792 1.608h-1.008Zm-1.632 1.788c-.344 0-.668.072-.972.216a1.73 1.73 0 0 0-.744.636c-.184.28-.276.624-.276 1.032 0 .608.176 1.104.528 1.488.352.376.856.564 1.512.564.56 0 1.004-.172 1.332-.516.336-.352.504-.824.504-1.416 0-.624-.16-1.112-.48-1.464-.32-.36-.788-.54-1.404-.54Z" fill="#fff"/><path fill-rule="evenodd" clip-rule="evenodd" d="M150.899 3C152.612 3 154 4.4 154 6.125v9.75c0 1.726-1.388 3.125-3.101 3.125h-25.798c-1.713 0-3.101-1.4-3.101-3.125v-9.75C122 4.399 123.388 3 125.101 3h25.798ZM134.71 5.911c-.679 0-1.282.116-1.81.35-.528.232-.938.567-1.23 1.004-.292.437-.438.95-.438 1.539 0 .627.143 1.128.431 1.503.287.375.631.656 1.032.84.401.186.921.374 1.562.564.472.133.842.254 1.11.363.269.11.493.259.672.449.179.19.269.432.269.727 0 .36-.132.653-.396.876-.264.223-.627.335-1.089.335-.452 0-.808-.119-1.067-.356-.249-.228-.392-.535-.428-.92l-.004-.05h-2.121l.002.066c.02.58.184 1.086.493 1.516.321.447.757.789 1.308 1.026.552.238 1.171.357 1.859.357.726 0 1.353-.136 1.881-.406.528-.271.929-.635 1.202-1.09.273-.456.41-.95.41-1.482 0-.618-.146-1.117-.438-1.497a2.826 2.826 0 0 0-1.047-.855 11.43 11.43 0 0 0-1.569-.57 11.586 11.586 0 0 1-1.096-.377 1.99 1.99 0 0 1-.65-.428.9.9 0 0 1-.262-.662c0-.38.115-.67.346-.87.231-.2.54-.299.927-.299.443 0 .798.112 1.067.335.258.214.4.482.428.805l.003.043h2.178l-.005-.06c-.077-.865-.427-1.54-1.049-2.028-.636-.499-1.463-.748-2.481-.748Zm10.684 0c-.924 0-1.772.219-2.545.655a4.87 4.87 0 0 0-1.838 1.817c-.452.775-.679 1.646-.679 2.615 0 .979.227 1.855.679 2.63a4.871 4.871 0 0 0 1.838 1.816 5.081 5.081 0 0 0 2.545.656c.924 0 1.772-.219 2.545-.656a4.818 4.818 0 0 0 1.831-1.817c.448-.774.672-1.65.672-2.629 0-.969-.224-1.84-.672-2.615a4.827 4.827 0 0 0-1.824-1.816 5.07 5.07 0 0 0-2.552-.656Zm-16.632.143h-1.979V16h1.979V6.053Zm16.632 1.652c.594 0 1.117.133 1.57.4.452.265.806.648 1.06 1.147.255.498.382 1.08.382 1.745s-.127 1.25-.382 1.753c-.254.504-.608.89-1.06 1.161-.453.271-.976.406-1.57.406-.594 0-1.119-.135-1.576-.406a2.76 2.76 0 0 1-1.068-1.161c-.254-.503-.382-1.088-.382-1.753 0-.665.128-1.247.382-1.745.255-.5.61-.882 1.068-1.148.457-.266.982-.399 1.576-.399Z" fill="#fff"/><path d="M161.48 10.068V9.24l4.212-5.832H167V9.12h1.2v.948H167V12h-1.08v-1.932h-4.44Zm4.488-5.52L162.74 9.12h3.228V4.548Zm3.323 3.024c0-1.376.224-2.448.672-3.216.448-.776 1.232-1.164 2.352-1.164 1.112 0 1.892.388 2.34 1.164.448.768.672 1.84.672 3.216 0 1.4-.224 2.488-.672 3.264-.448.776-1.228 1.164-2.34 1.164-1.12 0-1.904-.388-2.352-1.164-.448-.776-.672-1.864-.672-3.264Zm4.956 0c0-.696-.048-1.284-.144-1.764-.088-.488-.276-.88-.564-1.176-.28-.296-.688-.444-1.224-.444-.544 0-.96.148-1.248.444-.28.296-.468.688-.564 1.176-.088.48-.132 1.068-.132 1.764 0 .72.044 1.324.132 1.812.096.488.284.88.564 1.176.288.296.704.444 1.248.444.536 0 .944-.148 1.224-.444.288-.296.476-.688.564-1.176.096-.488.144-1.092.144-1.812Zm2.579 0c0-1.376.224-2.448.672-3.216.448-.776 1.232-1.164 2.352-1.164 1.112 0 1.892.388 2.34 1.164.448.768.672 1.84.672 3.216 0 1.4-.224 2.488-.672 3.264-.448.776-1.228 1.164-2.34 1.164-1.12 0-1.904-.388-2.352-1.164-.448-.776-.672-1.864-.672-3.264Zm4.956 0c0-.696-.048-1.284-.144-1.764-.088-.488-.276-.88-.564-1.176-.28-.296-.688-.444-1.224-.444-.544 0-.96.148-1.248.444-.28.296-.468.688-.564 1.176-.088.48-.132 1.068-.132 1.764 0 .72.044 1.324.132 1.812.096.488.284.88.564 1.176.288.296.704.444 1.248.444.536 0 .944-.148 1.224-.444.288-.296.476-.688.564-1.176.096-.488.144-1.092.144-1.812Z" fill="#fff"/><path fill-rule="evenodd" clip-rule="evenodd" d="M206 9.445c-.962 0-1.74-.745-1.74-1.664 0-.918.778-1.662 1.74-1.662.96 0 1.738.744 1.738 1.662 0 .92-.778 1.664-1.738 1.664ZM206 3c-2.761 0-5 2.14-5 4.78 0 1.928 2.659 7.691 4.099 10.67.354.733 1.445.733 1.802 0C208.339 15.47 211 9.708 211 7.78c0-2.64-2.239-4.78-5-4.78Z" fill="#fff"/><path d="M221.136 3.636v6.18c0 .688-.212 1.24-.636 1.656-.424.408-.984.612-1.68.612-.704 0-1.268-.208-1.692-.624-.424-.424-.636-1-.636-1.728h1.092c.008.408.112.74.312.996.208.256.516.384.924.384.408 0 .712-.12.912-.36.2-.248.3-.56.3-.936v-6.18h1.104Zm1.743 5.052c0-.672.136-1.26.408-1.764a2.964 2.964 0 0 1 1.116-1.188 3.11 3.11 0 0 1 1.596-.42c.576 0 1.076.124 1.5.372.424.248.74.56.948.936v-1.2h1.104V12h-1.104v-1.224c-.216.384-.54.704-.972.96-.424.248-.92.372-1.488.372a2.98 2.98 0 0 1-1.584-.432 3.03 3.03 0 0 1-1.116-1.212c-.272-.52-.408-1.112-.408-1.776Zm5.568.012c0-.496-.1-.928-.3-1.296a2.065 2.065 0 0 0-.816-.84 2.14 2.14 0 0 0-1.116-.3c-.408 0-.78.096-1.116.288a2.09 2.09 0 0 0-.804.84c-.2.368-.3.8-.3 1.296 0 .504.1.944.3 1.32.2.368.468.652.804.852a2.21 2.21 0 0 0 1.116.288c.408 0 .78-.096 1.116-.288.344-.2.616-.484.816-.852.2-.376.3-.812.3-1.308Zm4.042-2.064c.216-.376.536-.688.96-.936.432-.256.932-.384 1.5-.384.584 0 1.112.14 1.584.42.48.28.856.676 1.128 1.188.272.504.408 1.092.408 1.764 0 .664-.136 1.256-.408 1.776a3.002 3.002 0 0 1-2.712 1.644c-.56 0-1.056-.124-1.488-.372a2.764 2.764 0 0 1-.972-.948v4.332h-1.092V5.424h1.092v1.212Zm4.464 2.052c0-.496-.1-.928-.3-1.296a2.065 2.065 0 0 0-.816-.84 2.21 2.21 0 0 0-1.116-.288c-.4 0-.772.1-1.116.3a2.151 2.151 0 0 0-.816.852c-.2.368-.3.796-.3 1.284 0 .496.1.932.3 1.308.208.368.48.652.816.852.344.192.716.288 1.116.288.408 0 .78-.096 1.116-.288.344-.2.616-.484.816-.852.2-.376.3-.816.3-1.32Zm2.145 0c0-.672.136-1.26.408-1.764a2.964 2.964 0 0 1 1.116-1.188 3.11 3.11 0 0 1 1.596-.42c.576 0 1.076.124 1.5.372.424.248.74.56.948.936v-1.2h1.104V12h-1.104v-1.224c-.216.384-.54.704-.972.96-.424.248-.92.372-1.488.372a2.98 2.98 0 0 1-1.584-.432 3.03 3.03 0 0 1-1.116-1.212c-.272-.52-.408-1.112-.408-1.776Zm5.568.012c0-.496-.1-.928-.3-1.296a2.065 2.065 0 0 0-.816-.84 2.14 2.14 0 0 0-1.116-.3c-.408 0-.78.096-1.116.288a2.09 2.09 0 0 0-.804.84c-.2.368-.3.8-.3 1.296 0 .504.1.944.3 1.32.2.368.468.652.804.852a2.21 2.21 0 0 0 1.116.288c.408 0 .78-.096 1.116-.288.344-.2.616-.484.816-.852.2-.376.3-.812.3-1.308Zm6.153-3.396c.8 0 1.448.244 1.944.732.496.48.744 1.176.744 2.088V12h-1.08V8.28c0-.656-.164-1.156-.492-1.5-.328-.352-.776-.528-1.344-.528-.576 0-1.036.18-1.38.54-.336.36-.504.884-.504 1.572V12h-1.092V5.424h1.092v.936c.216-.336.508-.596.876-.78a2.774 2.774 0 0 1 1.236-.276Z" fill="#fff"/></svg>