<svg width="296" height="19" fill="none" xmlns="http://www.w3.org/2000/svg"><path fill-rule="evenodd" clip-rule="evenodd" d="M24.373 3c.064 0 .117.052.117.117v.122a.117.117 0 0 1-.117.117h-.134v.395a7.625 7.625 0 0 1 7.386 7.622 7.626 7.626 0 1 1-15.25 0 7.626 7.626 0 0 1 7.386-7.622v-.395h-.134a.117.117 0 0 1-.117-.117v-.122c0-.065.052-.117.117-.117h.746Zm-.182 1.75v.67a.191.191 0 0 1-.382 0v-.67a6.624 6.624 0 0 0-6.43 6.432h.669a.191.191 0 1 1 0 .382h-.67a6.625 6.625 0 0 0 6.43 6.432v-.67a.191.191 0 1 1 .383 0v.67a6.624 6.624 0 0 0 6.43-6.432h-.669a.191.191 0 0 1 0-.382h.67a6.623 6.623 0 0 0-6.43-6.431ZM24 11.018a.356.356 0 0 1 .35.415l2.266 2.05c.058.053.1.12.121.196l.03.111a.077.077 0 0 1-.086.096l-.114-.019a.412.412 0 0 1-.207-.1l-2.266-2.05a.356.356 0 1 1-.094-.699Z" fill="#fff"/><path d="M38.456 4.32v-.996h2.256V12h-1.104V4.32h-1.152ZM46.848.696 43.56 14.04h-1.08L45.756.696h1.092Zm1.315 10.428A56.82 56.82 0 0 0 50.55 9.12a9.777 9.777 0 0 0 1.452-1.644c.4-.576.6-1.14.6-1.692 0-.52-.128-.928-.384-1.224-.248-.304-.652-.456-1.212-.456-.544 0-.968.172-1.272.516-.296.336-.456.788-.48 1.356h-1.056c.032-.896.304-1.588.816-2.076s1.172-.732 1.98-.732c.824 0 1.476.228 1.956.684.488.456.732 1.084.732 1.884 0 .664-.2 1.312-.6 1.944a8.564 8.564 0 0 1-1.344 1.656 35.235 35.235 0 0 1-1.932 1.656h4.128v.912h-5.772v-.78Zm7.034-3.552c0-1.376.224-2.448.672-3.216.448-.776 1.232-1.164 2.352-1.164 1.112 0 1.892.388 2.34 1.164.448.768.672 1.84.672 3.216 0 1.4-.224 2.488-.672 3.264-.448.776-1.228 1.164-2.34 1.164-1.12 0-1.904-.388-2.352-1.164-.448-.776-.672-1.864-.672-3.264Zm4.956 0c0-.696-.048-1.284-.144-1.764-.088-.488-.276-.88-.564-1.176-.28-.296-.688-.444-1.224-.444-.544 0-.96.148-1.248.444-.28.296-.468.688-.564 1.176-.088.48-.132 1.068-.132 1.764 0 .72.044 1.324.132 1.812.096.488.284.88.564 1.176.288.296.704.444 1.248.444.536 0 .944-.148 1.224-.444.288-.296.476-.688.564-1.176.096-.488.144-1.092.144-1.812Zm2.58 0c0-1.376.223-2.448.671-3.216.448-.776 1.232-1.164 2.352-1.164 1.112 0 1.892.388 2.34 1.164.448.768.672 1.84.672 3.216 0 1.4-.224 2.488-.672 3.264-.448.776-1.228 1.164-2.34 1.164-1.12 0-1.904-.388-2.352-1.164-.448-.776-.672-1.864-.672-3.264Zm4.955 0c0-.696-.048-1.284-.144-1.764-.088-.488-.276-.88-.564-1.176-.28-.296-.688-.444-1.224-.444-.544 0-.96.148-1.248.444-.28.296-.468.688-.564 1.176-.088.48-.132 1.068-.132 1.764 0 .72.044 1.324.132 1.812.096.488.284.88.564 1.176.288.296.704.444 1.248.444.536 0 .944-.148 1.224-.444.288-.296.476-.688.564-1.176.096-.488.144-1.092.144-1.812Zm2.58 0c0-1.376.223-2.448.671-3.216.448-.776 1.232-1.164 2.352-1.164 1.112 0 1.892.388 2.34 1.164.448.768.672 1.84.672 3.216 0 1.4-.224 2.488-.672 3.264-.448.776-1.228 1.164-2.34 1.164-1.12 0-1.904-.388-2.352-1.164-.448-.776-.672-1.864-.672-3.264Zm4.955 0c0-.696-.048-1.284-.144-1.764-.088-.488-.276-.88-.564-1.176-.28-.296-.688-.444-1.224-.444-.544 0-.96.148-1.248.444-.28.296-.468.688-.564 1.176-.088.48-.132 1.068-.132 1.764 0 .72.044 1.324.132 1.812.096.488.284.88.564 1.176.288.296.704.444 1.248.444.536 0 .944-.148 1.224-.444.288-.296.476-.688.564-1.176.096-.488.144-1.092.144-1.812Zm5.088 4.536c-.504 0-.956-.084-1.356-.252a2.356 2.356 0 0 1-.948-.72 1.946 1.946 0 0 1-.384-1.068h1.128c.032.328.184.596.456.804.28.208.644.312 1.092.312.416 0 .744-.092.984-.276.24-.184.36-.416.36-.696 0-.288-.128-.5-.384-.636-.256-.144-.652-.284-1.188-.42a9.777 9.777 0 0 1-1.2-.384 2.279 2.279 0 0 1-.792-.588c-.216-.264-.324-.608-.324-1.032 0-.336.1-.644.3-.924.2-.28.484-.5.852-.66a3.003 3.003 0 0 1 1.26-.252c.728 0 1.316.184 1.764.552.448.368.688.872.72 1.512h-1.092a1.12 1.12 0 0 0-.42-.828c-.248-.208-.584-.312-1.008-.312-.392 0-.704.084-.936.252a.779.779 0 0 0-.348.66c0 .216.068.396.204.54.144.136.32.248.528.336.216.08.512.172.888.276.472.128.856.256 1.152.384.296.12.548.304.756.552.216.248.328.572.336.972 0 .36-.1.684-.3.972-.2.288-.484.516-.852.684-.36.16-.776.24-1.248.24Z" fill="#fff"/><path fill-rule="evenodd" clip-rule="evenodd" d="M186.899 3C188.612 3 190 4.4 190 6.125v9.75c0 1.726-1.388 3.125-3.101 3.125h-25.798c-1.713 0-3.101-1.4-3.101-3.125v-9.75C158 4.399 159.388 3 161.101 3h25.798ZM170.71 5.911c-.679 0-1.282.116-1.81.35-.528.232-.938.567-1.23 1.004-.292.437-.438.95-.438 1.539 0 .627.143 1.128.431 1.503.287.375.631.656 1.032.84.401.186.921.374 1.562.564.472.133.842.254 1.11.363.269.11.493.259.672.449.179.19.269.432.269.727 0 .36-.132.653-.396.876-.264.223-.627.335-1.089.335-.452 0-.808-.119-1.067-.356-.249-.228-.392-.535-.428-.92l-.004-.05h-2.121l.002.066c.02.58.184 1.086.493 1.516.321.447.757.789 1.308 1.026.552.238 1.171.357 1.859.357.726 0 1.353-.136 1.881-.406.528-.271.929-.635 1.202-1.09.273-.456.41-.95.41-1.482 0-.618-.146-1.117-.438-1.497a2.826 2.826 0 0 0-1.047-.855 11.43 11.43 0 0 0-1.569-.57 11.586 11.586 0 0 1-1.096-.377 1.99 1.99 0 0 1-.65-.428.9.9 0 0 1-.262-.662c0-.38.115-.67.346-.87.231-.2.54-.299.927-.299.443 0 .798.112 1.067.335.258.214.4.482.428.805l.003.043h2.178l-.005-.06c-.077-.865-.427-1.54-1.049-2.028-.636-.499-1.463-.748-2.481-.748Zm10.684 0c-.924 0-1.772.219-2.545.655a4.87 4.87 0 0 0-1.838 1.817c-.452.775-.679 1.646-.679 2.615 0 .979.227 1.855.679 2.63a4.871 4.871 0 0 0 1.838 1.816 5.081 5.081 0 0 0 2.545.656c.924 0 1.772-.219 2.545-.656a4.818 4.818 0 0 0 1.831-1.817c.448-.774.672-1.65.672-2.629 0-.969-.224-1.84-.672-2.615a4.827 4.827 0 0 0-1.824-1.816 5.07 5.07 0 0 0-2.552-.656Zm-16.632.143h-1.979V16h1.979V6.053Zm16.632 1.652c.594 0 1.117.133 1.57.4.452.265.806.648 1.06 1.147.255.498.382 1.08.382 1.745s-.127 1.25-.382 1.753c-.254.504-.608.89-1.06 1.161-.453.271-.976.406-1.57.406-.594 0-1.119-.135-1.576-.406a2.76 2.76 0 0 1-1.068-1.161c-.254-.503-.382-1.088-.382-1.753 0-.665.128-1.247.382-1.745.255-.5.61-.882 1.068-1.148.457-.266.982-.399 1.576-.399Z" fill="#fff"/><path d="M197.456 4.32v-.996h2.256V12h-1.104V4.32h-1.152Zm4.132 3.252c0-1.376.224-2.448.672-3.216.448-.776 1.232-1.164 2.352-1.164 1.112 0 1.892.388 2.34 1.164.448.768.672 1.84.672 3.216 0 1.4-.224 2.488-.672 3.264-.448.776-1.228 1.164-2.34 1.164-1.12 0-1.904-.388-2.352-1.164-.448-.776-.672-1.864-.672-3.264Zm4.956 0c0-.696-.048-1.284-.144-1.764-.088-.488-.276-.88-.564-1.176-.28-.296-.688-.444-1.224-.444-.544 0-.96.148-1.248.444-.28.296-.468.688-.564 1.176-.088.48-.132 1.068-.132 1.764 0 .72.044 1.324.132 1.812.096.488.284.88.564 1.176.288.296.704.444 1.248.444.536 0 .944-.148 1.224-.444.288-.296.476-.688.564-1.176.096-.488.144-1.092.144-1.812Zm2.579 0c0-1.376.224-2.448.672-3.216.448-.776 1.232-1.164 2.352-1.164 1.112 0 1.892.388 2.34 1.164.448.768.672 1.84.672 3.216 0 1.4-.224 2.488-.672 3.264-.448.776-1.228 1.164-2.34 1.164-1.12 0-1.904-.388-2.352-1.164-.448-.776-.672-1.864-.672-3.264Zm4.956 0c0-.696-.048-1.284-.144-1.764-.088-.488-.276-.88-.564-1.176-.28-.296-.688-.444-1.224-.444-.544 0-.96.148-1.248.444-.28.296-.468.688-.564 1.176-.088.48-.132 1.068-.132 1.764 0 .72.044 1.324.132 1.812.096.488.284.88.564 1.176.288.296.704.444 1.248.444.536 0 .944-.148 1.224-.444.288-.296.476-.688.564-1.176.096-.488.144-1.092.144-1.812Z" fill="#fff"/><path fill-rule="evenodd" clip-rule="evenodd" d="m106.639 13.596 7.384 4.29A7.773 7.773 0 0 1 110 19a7.603 7.603 0 0 1-3.361-.759v-4.645Zm-.592-4.196v8.533c-2.224-1.232-3.763-3.532-3.999-6.21l3.999-2.323ZM118 10.94v.071a7.91 7.91 0 0 1-3.408 6.519l-4-2.3L118 10.94Zm-4.047-6.873c2.225 1.232 3.763 3.532 4 6.21l-4 2.323V4.067Zm-8.545.403 4 2.299L102 11.036v-.024a7.922 7.922 0 0 1 3.408-6.542ZM110 3c1.208 0 2.344.26 3.361.759V8.38l-7.384-4.29A7.986 7.986 0 0 1 110 3Z" fill="#fff"/><path d="M127.6 6.324h-1.38V12h-1.092V6.324h-.852v-.9h.852v-.468c0-.736.188-1.272.564-1.608.384-.344.996-.516 1.836-.516v.912c-.48 0-.82.096-1.02.288-.192.184-.288.492-.288.924v.468h1.38v.9Zm5.353-5.628-3.288 13.344h-1.08L131.861.696h1.092Zm1.159 3.624v-.996h2.256V12h-1.104V4.32h-1.152Zm3.844 0v-.996h2.256V12h-1.104V4.32h-1.152Z" fill="#fff"/><path fill-rule="evenodd" clip-rule="evenodd" d="M238 9.445c-.962 0-1.74-.745-1.74-1.664 0-.918.778-1.662 1.74-1.662.96 0 1.738.744 1.738 1.662 0 .92-.778 1.664-1.738 1.664ZM238 3c-2.761 0-5 2.14-5 4.78 0 1.928 2.659 7.691 4.099 10.67.354.733 1.445.733 1.802 0C240.339 15.47 243 9.708 243 7.78c0-2.64-2.239-4.78-5-4.78Z" fill="#fff"/><path d="M250.016 3.636V12h-1.092V3.636h1.092Zm1.453 5.064c0-.68.136-1.272.408-1.776a2.938 2.938 0 0 1 1.128-1.188c.488-.28 1.044-.42 1.668-.42.808 0 1.472.196 1.992.588.528.392.876.936 1.044 1.632h-1.176a1.679 1.679 0 0 0-.66-.948c-.32-.232-.72-.348-1.2-.348-.624 0-1.128.216-1.512.648-.384.424-.576 1.028-.576 1.812 0 .792.192 1.404.576 1.836.384.432.888.648 1.512.648.48 0 .88-.112 1.2-.336.32-.224.54-.544.66-.96h1.176a2.921 2.921 0 0 1-1.056 1.62c-.528.4-1.188.6-1.98.6-.624 0-1.18-.14-1.668-.42a2.938 2.938 0 0 1-1.128-1.188c-.272-.512-.408-1.112-.408-1.8Zm13.697-.24c0 .208-.012.428-.036.66h-5.256c.04.648.26 1.156.66 1.524.408.36.9.54 1.476.54.472 0 .864-.108 1.176-.324.32-.224.544-.52.672-.888h1.176a2.856 2.856 0 0 1-1.056 1.548c-.528.392-1.184.588-1.968.588-.624 0-1.184-.14-1.68-.42a2.995 2.995 0 0 1-1.152-1.188c-.28-.52-.42-1.12-.42-1.8 0-.68.136-1.276.408-1.788a2.836 2.836 0 0 1 1.14-1.176c.496-.28 1.064-.42 1.704-.42.624 0 1.176.136 1.656.408.48.272.848.648 1.104 1.128.264.472.396 1.008.396 1.608Zm-1.128-.228c0-.416-.092-.772-.276-1.068a1.737 1.737 0 0 0-.756-.684c-.312-.16-.66-.24-1.044-.24-.552 0-1.024.176-1.416.528-.384.352-.604.84-.66 1.464h4.152ZM267.7 3.12V12h-1.092V3.12h1.092Zm1.453 5.568c0-.672.136-1.26.408-1.764a2.964 2.964 0 0 1 1.116-1.188 3.11 3.11 0 0 1 1.596-.42c.576 0 1.076.124 1.5.372.424.248.74.56.948.936v-1.2h1.104V12h-1.104v-1.224c-.216.384-.54.704-.972.96-.424.248-.92.372-1.488.372a2.98 2.98 0 0 1-1.584-.432 3.03 3.03 0 0 1-1.116-1.212c-.272-.52-.408-1.112-.408-1.776Zm5.568.012c0-.496-.1-.928-.3-1.296a2.065 2.065 0 0 0-.816-.84 2.14 2.14 0 0 0-1.116-.3c-.408 0-.78.096-1.116.288a2.09 2.09 0 0 0-.804.84c-.2.368-.3.8-.3 1.296 0 .504.1.944.3 1.32.2.368.468.652.804.852a2.21 2.21 0 0 0 1.116.288c.408 0 .78-.096 1.116-.288.344-.2.616-.484.816-.852.2-.376.3-.812.3-1.308Zm6.153-3.396c.8 0 1.448.244 1.944.732.496.48.744 1.176.744 2.088V12h-1.08V8.28c0-.656-.164-1.156-.492-1.5-.328-.352-.776-.528-1.344-.528-.576 0-1.036.18-1.38.54-.336.36-.504.884-.504 1.572V12h-1.092V5.424h1.092v.936c.216-.336.508-.596.876-.78a2.774 2.774 0 0 1 1.236-.276Zm4.064 3.384c0-.672.136-1.26.408-1.764a2.964 2.964 0 0 1 1.116-1.188c.48-.28 1.016-.42 1.608-.42.512 0 .988.12 1.428.36.44.232.776.54 1.008.924V3.12h1.104V12h-1.104v-1.236a2.598 2.598 0 0 1-.96.972c-.424.248-.92.372-1.488.372a3.043 3.043 0 0 1-1.596-.432 3.03 3.03 0 0 1-1.116-1.212c-.272-.52-.408-1.112-.408-1.776Zm5.568.012c0-.496-.1-.928-.3-1.296a2.065 2.065 0 0 0-.816-.84 2.14 2.14 0 0 0-1.116-.3c-.408 0-.78.096-1.116.288a2.09 2.09 0 0 0-.804.84c-.2.368-.3.8-.3 1.296 0 .504.1.944.3 1.32.2.368.468.652.804.852a2.21 2.21 0 0 0 1.116.288c.408 0 .78-.096 1.116-.288.344-.2.616-.484.816-.852.2-.376.3-.812.3-1.308Z" fill="#fff"/></svg>