<svg width="154" height="42" fill="none" xmlns="http://www.w3.org/2000/svg"><path d="M0 14C0 6.268 6.268 0 14 0h126c7.732 0 14 6.268 14 14v14c0 7.732-6.268 14-14 14H14C6.268 42 0 35.732 0 28V14Z" fill="#fff"/><path d="M51.902 17.08a3.418 3.418 0 0 0-1.344-1.504c-.587-.363-1.27-.544-2.048-.544-.779 0-1.483.181-2.112.544-.619.352-1.11.864-1.472 1.536-.352.661-.528 1.43-.528 2.304 0 .875.176 1.643.528 2.304a3.926 3.926 0 0 0 1.472 1.536c.63.352 1.333.528 2.112.528 1.088 0 1.984-.325 2.688-.976.704-.65 1.114-1.53 1.232-2.64h-4.448v-1.184h6v1.12a5.592 5.592 0 0 1-.864 2.528 5.432 5.432 0 0 1-1.936 1.808c-.8.437-1.69.656-2.672.656-1.035 0-1.979-.24-2.832-.72a5.463 5.463 0 0 1-2.032-2.032c-.49-.864-.736-1.84-.736-2.928 0-1.088.245-2.064.736-2.928a5.311 5.311 0 0 1 2.032-2.032c.853-.49 1.797-.736 2.832-.736 1.184 0 2.23.293 3.136.88.917.587 1.584 1.413 2 2.48h-1.744Zm12.405 3.2c0 .277-.016.57-.048.88h-7.008c.053.864.347 1.541.88 2.032.544.48 1.2.72 1.968.72.63 0 1.152-.144 1.568-.432.427-.299.725-.693.896-1.184h1.568a3.808 3.808 0 0 1-1.408 2.064c-.704.523-1.579.784-2.624.784-.832 0-1.579-.187-2.24-.56A3.992 3.992 0 0 1 56.323 23c-.373-.693-.56-1.493-.56-2.4 0-.907.181-1.701.544-2.384a3.781 3.781 0 0 1 1.52-1.568c.661-.373 1.419-.56 2.272-.56.832 0 1.568.181 2.208.544a3.7 3.7 0 0 1 1.472 1.504c.352.63.528 1.344.528 2.144Zm-1.504-.304c0-.555-.123-1.03-.368-1.424a2.316 2.316 0 0 0-1.008-.912 3.006 3.006 0 0 0-1.392-.32c-.736 0-1.365.235-1.888.704-.512.47-.805 1.12-.88 1.952h5.536Zm5.602-2.544V22.6c0 .427.09.73.272.912.181.17.496.256.944.256h1.072V25H69.38c-.81 0-1.419-.187-1.824-.56-.406-.373-.608-.987-.608-1.84v-5.168h-1.136v-1.2h1.136v-2.208h1.456v2.208h2.288v1.2h-2.288Zm9.87-2.624a.958.958 0 0 1-.704-.288.958.958 0 0 1-.288-.704c0-.277.096-.512.288-.704a.958.958 0 0 1 .704-.288c.266 0 .49.096.672.288a.958.958 0 0 1 .288.704.958.958 0 0 1-.288.704.887.887 0 0 1-.672.288Zm.704 1.424V25h-1.456v-8.768h1.456Zm7.153-.16c1.067 0 1.93.325 2.592.976.661.64.992 1.568.992 2.784V25h-1.44v-4.96c0-.875-.218-1.541-.656-2-.437-.47-1.035-.704-1.792-.704-.768 0-1.381.24-1.84.72-.448.48-.672 1.179-.672 2.096V25H81.86v-8.768h1.456v1.248a2.903 2.903 0 0 1 1.168-1.04 3.699 3.699 0 0 1 1.648-.368Zm12.804 1.36V22.6c0 .427.09.73.272.912.181.17.496.256.944.256h1.072V25h-1.312c-.81 0-1.419-.187-1.824-.56-.405-.373-.608-.987-.608-1.84v-5.168h-1.136v-1.2h1.136v-2.208h1.456v2.208h2.288v1.2h-2.288Zm8.276 7.712a4.535 4.535 0 0 1-2.24-.56A4.072 4.072 0 0 1 103.404 23c-.373-.693-.56-1.493-.56-2.4 0-.896.192-1.685.576-2.368a4.011 4.011 0 0 1 1.6-1.584c.672-.373 1.424-.56 2.256-.56.832 0 1.584.187 2.256.56.672.363 1.2.885 1.584 1.568.395.683.592 1.477.592 2.384 0 .907-.202 1.707-.608 2.4a4.112 4.112 0 0 1-1.616 1.584c-.682.373-1.44.56-2.272.56Zm0-1.28c.523 0 1.014-.123 1.472-.368a2.744 2.744 0 0 0 1.104-1.104c.288-.49.432-1.088.432-1.792s-.138-1.301-.416-1.792c-.277-.49-.64-.853-1.088-1.088a2.982 2.982 0 0 0-1.456-.368c-.533 0-1.024.123-1.472.368-.437.235-.789.597-1.056 1.088-.266.49-.4 1.088-.4 1.792 0 .715.128 1.317.384 1.808.267.49.619.859 1.056 1.104a3 3 0 0 0 1.44.352Zm14.587-7.632V25h-1.456v-1.296c-.278.448-.667.8-1.168 1.056a3.6 3.6 0 0 1-1.632.368c-.683 0-1.296-.139-1.84-.416a3.184 3.184 0 0 1-1.296-1.28c-.31-.565-.464-1.253-.464-2.064v-5.136h1.44v4.944c0 .864.218 1.53.656 2 .437.459 1.034.688 1.792.688.778 0 1.392-.24 1.84-.72.448-.48.672-1.179.672-2.096v-4.816h1.456Zm2.314 4.368c0-.907.181-1.696.544-2.368a3.92 3.92 0 0 1 1.504-1.584c.651-.373 1.392-.56 2.224-.56 1.077 0 1.963.261 2.656.784.704.523 1.168 1.248 1.392 2.176h-1.568a2.238 2.238 0 0 0-.88-1.264c-.427-.31-.96-.464-1.6-.464-.832 0-1.504.288-2.016.864-.512.565-.768 1.37-.768 2.416 0 1.056.256 1.872.768 2.448.512.576 1.184.864 2.016.864.64 0 1.173-.15 1.6-.448.427-.299.72-.725.88-1.28h1.568c-.235.896-.704 1.616-1.408 2.16-.704.533-1.584.8-2.64.8-.832 0-1.573-.187-2.224-.56A3.92 3.92 0 0 1 124.657 23c-.363-.683-.544-1.483-.544-2.4Zm15.015-4.528c.661 0 1.258.144 1.792.432a2.92 2.92 0 0 1 1.248 1.264c.309.565.464 1.253.464 2.064V25h-1.44v-4.96c0-.875-.219-1.541-.656-2-.438-.47-1.035-.704-1.792-.704-.768 0-1.382.24-1.84.72-.448.48-.672 1.179-.672 2.096V25h-1.456V13.16h1.456v4.32a2.875 2.875 0 0 1 1.184-1.04 3.91 3.91 0 0 1 1.712-.368Z" fill="#000"/><g clip-path="url(#a)" stroke="#000" stroke-width="12.583" stroke-linecap="round" stroke-linejoin="round"><path d="M20 10.514c5.791 0 10.486 4.694 10.486 10.486 0 5.791-4.695 10.486-10.486 10.486S9.514 26.79 9.514 21c0-5.792 4.695-10.486 10.486-10.486ZM22.422 16.805l6.02 10.423M17.578 16.805h12.038M15.155 21l6.02-10.423M17.578 25.194l-6.02-10.423M22.422 25.194H10.384M24.845 21l-6.02 10.423"/></g><defs><clipPath id="a"><path fill="#fff" transform="translate(4 5)" d="M0 0h32v32H0z"/></clipPath></defs></svg>