<svg width="152" height="42" fill="none" xmlns="http://www.w3.org/2000/svg"><path d="M0 14C0 6.268 6.268 0 14 0h124c7.732 0 14 6.268 14 14v14c0 7.732-6.268 14-14 14H14C6.268 42 0 35.732 0 28V14Z" fill="#fff"/><g clip-path="url(#a)" stroke="#000" stroke-width="12.583" stroke-linecap="round" stroke-linejoin="round"><path d="M20 10.514c5.791 0 10.486 4.695 10.486 10.486S25.791 31.486 20 31.486 9.514 26.791 9.514 21 14.209 10.514 20 10.514ZM22.422 16.806l6.02 10.423M17.578 16.806h12.038M15.155 21l6.02-10.423M17.578 25.194l-6.02-10.423M22.422 25.195H10.384M24.845 21l-6.02 10.423"/></g><path d="M42.688 19.416c0-1.088.245-2.064.736-2.928a5.349 5.349 0 0 1 2-2.048c.853-.49 1.797-.736 2.832-.736 1.216 0 2.277.293 3.184.88s1.568 1.419 1.984 2.496H51.68c-.31-.672-.757-1.19-1.344-1.552-.576-.363-1.27-.544-2.08-.544-.779 0-1.477.181-2.096.544a3.792 3.792 0 0 0-1.456 1.552c-.352.661-.528 1.44-.528 2.336 0 .885.176 1.664.528 2.336a3.817 3.817 0 0 0 1.456 1.536c.619.363 1.317.544 2.096.544.81 0 1.504-.176 2.08-.528.587-.363 1.035-.88 1.344-1.552h1.744c-.416 1.067-1.077 1.893-1.984 2.48-.907.576-1.968.864-3.184.864-1.035 0-1.979-.24-2.832-.72a5.38 5.38 0 0 1-2-2.032c-.49-.864-.736-1.84-.736-2.928Zm17.655-3.344a3.71 3.71 0 0 1 1.792.432c.534.277.95.699 1.248 1.264.31.565.464 1.253.464 2.064V25h-1.44v-4.96c0-.875-.218-1.541-.656-2-.437-.47-1.034-.704-1.792-.704-.768 0-1.381.24-1.84.72-.448.48-.672 1.179-.672 2.096V25h-1.456V13.16h1.456v4.32a2.879 2.879 0 0 1 1.184-1.04 3.911 3.911 0 0 1 1.712-.368Zm14.283 4.208c0 .277-.016.57-.048.88H67.57c.053.864.346 1.541.88 2.032.544.48 1.2.72 1.968.72.63 0 1.152-.144 1.568-.432.426-.299.725-.693.896-1.184h1.568a3.807 3.807 0 0 1-1.408 2.064c-.704.523-1.579.784-2.624.784-.832 0-1.579-.187-2.24-.56A3.993 3.993 0 0 1 66.642 23c-.374-.693-.56-1.493-.56-2.4 0-.907.181-1.701.544-2.384a3.782 3.782 0 0 1 1.52-1.568c.661-.373 1.418-.56 2.272-.56.832 0 1.568.181 2.208.544a3.7 3.7 0 0 1 1.472 1.504c.352.63.528 1.344.528 2.144Zm-1.504-.304c0-.555-.123-1.03-.368-1.424a2.316 2.316 0 0 0-1.008-.912 3.006 3.006 0 0 0-1.392-.32c-.736 0-1.366.235-1.888.704-.512.47-.806 1.12-.88 1.952h5.536Zm3.282.624c0-.907.181-1.696.544-2.368a3.917 3.917 0 0 1 1.504-1.584c.65-.373 1.392-.56 2.224-.56 1.077 0 1.962.261 2.656.784.704.523 1.168 1.248 1.392 2.176h-1.568a2.238 2.238 0 0 0-.88-1.264c-.427-.31-.96-.464-1.6-.464-.832 0-1.504.288-2.016.864-.512.565-.768 1.37-.768 2.416 0 1.056.256 1.872.768 2.448.512.576 1.184.864 2.016.864.64 0 1.173-.15 1.6-.448.426-.299.72-.725.88-1.28h1.568c-.235.896-.704 1.616-1.408 2.16-.704.533-1.584.8-2.64.8-.832 0-1.574-.187-2.224-.56A3.917 3.917 0 0 1 76.948 23c-.363-.683-.544-1.483-.544-2.4ZM91.962 25l-3.44-3.872V25h-1.456V13.16h1.456v6.96l3.376-3.888h2.032L89.802 20.6l4.144 4.4h-1.984Zm9.156-10.192a.958.958 0 0 1-.704-.288.958.958 0 0 1-.288-.704c0-.277.096-.512.288-.704a.958.958 0 0 1 .704-.288c.267 0 .491.096.672.288a.958.958 0 0 1 .288.704.958.958 0 0 1-.288.704.886.886 0 0 1-.672.288Zm.704 1.424V25h-1.456v-8.768h1.456Zm4.658 1.2V22.6c0 .427.091.73.272.912.181.17.496.256.944.256h1.072V25h-1.312c-.811 0-1.419-.187-1.824-.56-.405-.373-.608-.987-.608-1.84v-5.168h-1.136v-1.2h1.136v-2.208h1.456v2.208h2.288v1.2h-2.288Zm12.942 7.712a4.532 4.532 0 0 1-2.24-.56A4.065 4.065 0 0 1 115.614 23c-.374-.693-.56-1.493-.56-2.4 0-.896.192-1.685.576-2.368a4.005 4.005 0 0 1 1.6-1.584c.672-.373 1.424-.56 2.256-.56.832 0 1.584.187 2.256.56.672.363 1.2.885 1.584 1.568.394.683.592 1.477.592 2.384 0 .907-.203 1.707-.608 2.4a4.125 4.125 0 0 1-1.616 1.584c-.683.373-1.44.56-2.272.56Zm0-1.28c.522 0 1.013-.123 1.472-.368a2.756 2.756 0 0 0 1.104-1.104c.288-.49.432-1.088.432-1.792s-.139-1.301-.416-1.792c-.278-.49-.64-.853-1.088-1.088a2.985 2.985 0 0 0-1.456-.368c-.534 0-1.024.123-1.472.368-.438.235-.79.597-1.056 1.088-.267.49-.4 1.088-.4 1.792 0 .715.128 1.317.384 1.808.266.49.618.859 1.056 1.104.437.235.917.352 1.44.352Zm14.586-7.632V25h-1.456v-1.296c-.277.448-.667.8-1.168 1.056a3.6 3.6 0 0 1-1.632.368c-.683 0-1.296-.139-1.84-.416a3.184 3.184 0 0 1-1.296-1.28c-.309-.565-.464-1.253-.464-2.064v-5.136h1.44v4.944c0 .864.219 1.53.656 2 .437.459 1.035.688 1.792.688.779 0 1.392-.24 1.84-.72.448-.48.672-1.179.672-2.096v-4.816h1.456Zm4.634 1.2V22.6c0 .427.091.73.272.912.182.17.496.256.944.256h1.072V25h-1.312c-.81 0-1.418-.187-1.824-.56-.405-.373-.608-.987-.608-1.84v-5.168h-1.136v-1.2h1.136v-2.208h1.456v2.208h2.288v1.2h-2.288Z" fill="#000"/><defs><clipPath id="a"><path fill="#fff" transform="translate(4 5)" d="M0 0h32v32H0z"/></clipPath></defs></svg>