<svg width="282" height="19" fill="none" xmlns="http://www.w3.org/2000/svg"><path fill-rule="evenodd" clip-rule="evenodd" d="m80.64 13.596 7.383 4.29A7.774 7.774 0 0 1 84 19a7.6 7.6 0 0 1-3.36-.759v-4.645ZM80.046 9.4v8.533c-2.224-1.232-3.763-3.532-4-6.21l4-2.323ZM92 10.94v.071a7.91 7.91 0 0 1-3.408 6.519l-4-2.3L92 10.94Zm-4.047-6.873c2.225 1.232 3.763 3.532 4 6.21l-4 2.323V4.067Zm-8.545.403 4 2.299L76 11.036v-.024a7.922 7.922 0 0 1 3.408-6.542ZM84.001 3c1.206 0 2.343.26 3.36.759V8.38l-7.384-4.29A7.988 7.988 0 0 1 84 3Z" fill="#fff"/><path d="M101.6 6.324h-1.38V12h-1.092V6.324h-.852v-.9h.852v-.468c0-.736.188-1.272.564-1.608.384-.344.996-.516 1.836-.516v.912c-.48 0-.82.096-1.02.288-.192.184-.288.492-.288.924v.468h1.38v.9Zm5.353-5.628-3.288 13.344h-1.08L105.861.696h1.092Zm6.979 3.576h-4.212v2.736c.184-.256.456-.464.816-.624.36-.168.748-.252 1.164-.252.664 0 1.204.14 1.62.42.416.272.712.628.888 1.068.184.432.276.892.276 1.38 0 .576-.108 1.092-.324 1.548a2.449 2.449 0 0 1-.996 1.08c-.44.264-.988.396-1.644.396-.84 0-1.52-.216-2.04-.648-.52-.432-.836-1.008-.948-1.728h1.068c.104.456.324.812.66 1.068s.76.384 1.272.384c.632 0 1.108-.188 1.428-.564.32-.384.48-.888.48-1.512s-.16-1.104-.48-1.44c-.32-.344-.792-.516-1.416-.516-.424 0-.796.104-1.116.312-.312.2-.54.476-.684.828h-1.032V3.312h5.22v.96Zm3.311 6.216-1.344 3.228h-.732l.876-3.228h1.2Zm5.907-5.1c-.176-.888-.724-1.332-1.644-1.332-.712 0-1.244.276-1.596.828-.352.544-.524 1.444-.516 2.7.184-.416.488-.74.912-.972.432-.24.912-.36 1.44-.36.824 0 1.48.256 1.968.768.496.512.744 1.22.744 2.124 0 .544-.108 1.032-.324 1.464a2.386 2.386 0 0 1-.96 1.032c-.424.256-.94.384-1.548.384-.824 0-1.468-.184-1.932-.552-.464-.368-.788-.876-.972-1.524-.184-.648-.276-1.448-.276-2.4 0-2.936 1.024-4.404 3.072-4.404.784 0 1.4.212 1.848.636.448.424.712.96.792 1.608h-1.008Zm-1.632 1.788c-.344 0-.668.072-.972.216a1.73 1.73 0 0 0-.744.636c-.184.28-.276.624-.276 1.032 0 .608.176 1.104.528 1.488.352.376.856.564 1.512.564.56 0 1.004-.172 1.332-.516.336-.352.504-.824.504-1.416 0-.624-.16-1.112-.48-1.464-.32-.36-.788-.54-1.404-.54Z" fill="#fff"/><path fill-rule="evenodd" clip-rule="evenodd" d="M222 9.445c-.962 0-1.74-.745-1.74-1.664 0-.918.778-1.662 1.74-1.662.96 0 1.738.744 1.738 1.662 0 .92-.778 1.664-1.738 1.664ZM222 3c-2.761 0-5 2.14-5 4.78 0 1.928 2.659 7.691 4.099 10.67.354.733 1.445.733 1.802 0C224.339 15.47 227 9.708 227 7.78c0-2.64-2.239-4.78-5-4.78Z" fill="#fff"/><path d="M235.576 12.084a3.685 3.685 0 0 1-1.488-.288 2.542 2.542 0 0 1-1.02-.816 2.119 2.119 0 0 1-.384-1.212h1.164c.04.392.2.724.48.996.288.264.704.396 1.248.396.52 0 .928-.128 1.224-.384.304-.264.456-.6.456-1.008 0-.32-.088-.58-.264-.78a1.687 1.687 0 0 0-.66-.456c-.264-.104-.62-.216-1.068-.336a9.703 9.703 0 0 1-1.332-.432 2.212 2.212 0 0 1-.852-.672c-.232-.312-.348-.728-.348-1.248 0-.456.116-.86.348-1.212.232-.352.556-.624.972-.816.424-.192.908-.288 1.452-.288.784 0 1.424.196 1.92.588.504.392.788.912.852 1.56h-1.2c-.04-.32-.208-.6-.504-.84-.296-.248-.688-.372-1.176-.372-.456 0-.828.12-1.116.36-.288.232-.432.56-.432.984 0 .304.084.552.252.744.176.192.388.34.636.444.256.096.612.208 1.068.336.552.152.996.304 1.332.456.336.144.624.372.864.684.24.304.36.72.36 1.248 0 .408-.108.792-.324 1.152-.216.36-.536.652-.96.876-.424.224-.924.336-1.5.336Zm13.151-6.66L246.675 12h-1.128l-1.584-5.22-1.584 5.22h-1.128l-2.064-6.576h1.116l1.512 5.52 1.632-5.52h1.116l1.596 5.532 1.488-5.532h1.08Zm7.084 3.036c0 .208-.012.428-.036.66h-5.256c.04.648.26 1.156.66 1.524.408.36.9.54 1.476.54.472 0 .864-.108 1.176-.324.32-.224.544-.52.672-.888h1.176a2.856 2.856 0 0 1-1.056 1.548c-.528.392-1.184.588-1.968.588-.624 0-1.184-.14-1.68-.42a2.995 2.995 0 0 1-1.152-1.188c-.28-.52-.42-1.12-.42-1.8 0-.68.136-1.276.408-1.788a2.836 2.836 0 0 1 1.14-1.176c.496-.28 1.064-.42 1.704-.42.624 0 1.176.136 1.656.408.48.272.848.648 1.104 1.128.264.472.396 1.008.396 1.608Zm-1.128-.228c0-.416-.092-.772-.276-1.068a1.737 1.737 0 0 0-.756-.684c-.312-.16-.66-.24-1.044-.24-.552 0-1.024.176-1.416.528-.384.352-.604.84-.66 1.464h4.152Zm2.161.456c0-.672.136-1.26.408-1.764a2.964 2.964 0 0 1 1.116-1.188c.48-.28 1.016-.42 1.608-.42.512 0 .988.12 1.428.36.44.232.776.54 1.008.924V3.12h1.104V12h-1.104v-1.236a2.598 2.598 0 0 1-.96.972c-.424.248-.92.372-1.488.372a3.043 3.043 0 0 1-1.596-.432 3.03 3.03 0 0 1-1.116-1.212c-.272-.52-.408-1.112-.408-1.776Zm5.568.012c0-.496-.1-.928-.3-1.296a2.065 2.065 0 0 0-.816-.84 2.14 2.14 0 0 0-1.116-.3c-.408 0-.78.096-1.116.288a2.09 2.09 0 0 0-.804.84c-.2.368-.3.8-.3 1.296 0 .504.1.944.3 1.32.2.368.468.652.804.852a2.21 2.21 0 0 0 1.116.288c.408 0 .78-.096 1.116-.288.344-.2.616-.484.816-.852.2-.376.3-.812.3-1.308Zm8.95-.24c0 .208-.012.428-.036.66h-5.256c.04.648.26 1.156.66 1.524.408.36.9.54 1.476.54.472 0 .864-.108 1.176-.324.32-.224.544-.52.672-.888h1.176a2.856 2.856 0 0 1-1.056 1.548c-.528.392-1.184.588-1.968.588-.624 0-1.184-.14-1.68-.42a2.995 2.995 0 0 1-1.152-1.188c-.28-.52-.42-1.12-.42-1.8 0-.68.136-1.276.408-1.788a2.836 2.836 0 0 1 1.14-1.176c.496-.28 1.064-.42 1.704-.42.624 0 1.176.136 1.656.408.48.272.848.648 1.104 1.128.264.472.396 1.008.396 1.608Zm-1.128-.228c0-.416-.092-.772-.276-1.068a1.737 1.737 0 0 0-.756-.684c-.312-.16-.66-.24-1.044-.24-.552 0-1.024.176-1.416.528-.384.352-.604.84-.66 1.464h4.152Zm5.773-2.928c.8 0 1.448.244 1.944.732.496.48.744 1.176.744 2.088V12h-1.08V8.28c0-.656-.164-1.156-.492-1.5-.328-.352-.776-.528-1.344-.528-.576 0-1.036.18-1.38.54-.336.36-.504.884-.504 1.572V12h-1.092V5.424h1.092v.936c.216-.336.508-.596.876-.78a2.774 2.774 0 0 1 1.236-.276Z" fill="#fff"/><path fill-rule="evenodd" clip-rule="evenodd" d="M24.373 3c.064 0 .117.052.117.117v.122a.117.117 0 0 1-.117.117h-.134v.395a7.625 7.625 0 0 1 7.386 7.622 7.626 7.626 0 1 1-15.25 0 7.626 7.626 0 0 1 7.386-7.622v-.395h-.134a.117.117 0 0 1-.117-.117v-.122c0-.065.052-.117.117-.117h.746Zm-.182 1.75v.67a.191.191 0 0 1-.382 0v-.67a6.624 6.624 0 0 0-6.43 6.432h.669a.191.191 0 1 1 0 .382h-.67a6.625 6.625 0 0 0 6.43 6.432v-.67a.191.191 0 1 1 .383 0v.67a6.624 6.624 0 0 0 6.43-6.432h-.669a.191.191 0 0 1 0-.382h.67a6.623 6.623 0 0 0-6.43-6.431ZM24 11.018a.356.356 0 0 1 .35.415l2.266 2.05c.058.053.1.12.121.196l.03.111a.077.077 0 0 1-.086.096l-.114-.019a.412.412 0 0 1-.207-.1l-2.266-2.05a.356.356 0 1 1-.094-.699Z" fill="#fff"/><path d="M38.744 7.572c0-1.376.224-2.448.672-3.216.448-.776 1.232-1.164 2.352-1.164 1.112 0 1.892.388 2.34 1.164.448.768.672 1.84.672 3.216 0 1.4-.224 2.488-.672 3.264-.448.776-1.228 1.164-2.34 1.164-1.12 0-1.904-.388-2.352-1.164-.448-.776-.672-1.864-.672-3.264Zm4.956 0c0-.696-.048-1.284-.144-1.764-.088-.488-.276-.88-.564-1.176-.28-.296-.688-.444-1.224-.444-.544 0-.96.148-1.248.444-.28.296-.468.688-.564 1.176-.088.48-.132 1.068-.132 1.764 0 .72.044 1.324.132 1.812.096.488.284.88.564 1.176.288.296.704.444 1.248.444.536 0 .944-.148 1.224-.444.288-.296.476-.688.564-1.176.096-.488.144-1.092.144-1.812Zm3.887 2.916-1.344 3.228h-.732l.876-3.228h1.2Zm2.655-3c-.448-.176-.792-.432-1.032-.768s-.36-.744-.36-1.224c0-.432.108-.82.324-1.164.216-.352.536-.628.96-.828.432-.208.952-.312 1.56-.312.608 0 1.124.104 1.548.312.432.2.756.476.972.828.224.344.336.732.336 1.164 0 .464-.124.872-.372 1.224-.248.344-.588.6-1.02.768.496.152.888.42 1.176.804.296.376.444.832.444 1.368 0 .52-.128.976-.384 1.368-.256.384-.62.684-1.092.9-.464.208-1 .312-1.608.312-.608 0-1.144-.104-1.608-.312a2.573 2.573 0 0 1-1.068-.9c-.256-.392-.384-.848-.384-1.368 0-.536.144-.996.432-1.38.288-.384.68-.648 1.176-.792Zm3.252-1.86c0-.488-.16-.864-.48-1.128-.32-.264-.76-.396-1.32-.396-.552 0-.988.132-1.308.396-.32.264-.48.644-.48 1.14 0 .448.164.808.492 1.08.336.272.768.408 1.296.408.536 0 .968-.136 1.296-.408.336-.28.504-.644.504-1.092Zm-1.8 2.34c-.592 0-1.076.14-1.452.42-.376.272-.564.684-.564 1.236 0 .512.18.924.54 1.236.368.312.86.468 1.476.468s1.104-.156 1.464-.468c.36-.312.54-.724.54-1.236 0-.536-.184-.944-.552-1.224-.368-.288-.852-.432-1.452-.432Zm5.266-5.52-.144 2.388h-.756l-.156-2.388h1.056Zm1.91 0-.143 2.388h-.756l-.156-2.388h1.056Z" fill="#fff"/><path fill-rule="evenodd" clip-rule="evenodd" d="M170.899 3C172.612 3 174 4.4 174 6.125v9.75c0 1.726-1.388 3.125-3.101 3.125h-25.798c-1.713 0-3.101-1.4-3.101-3.125v-9.75C142 4.399 143.388 3 145.101 3h25.798ZM154.71 5.911c-.679 0-1.282.116-1.81.35-.528.232-.938.567-1.23 1.004-.292.437-.438.95-.438 1.539 0 .627.143 1.128.431 1.503.287.375.631.656 1.032.84.401.186.921.374 1.562.564.472.133.842.254 1.11.363.269.11.493.259.672.449.179.19.269.432.269.727 0 .36-.132.653-.396.876-.264.223-.627.335-1.089.335-.452 0-.808-.119-1.067-.356-.249-.228-.392-.535-.428-.92l-.004-.05h-2.121l.002.066c.02.58.184 1.086.493 1.516.321.447.757.789 1.308 1.026.552.238 1.171.357 1.859.357.726 0 1.353-.136 1.881-.406.528-.271.929-.635 1.202-1.09.273-.456.41-.95.41-1.482 0-.618-.146-1.117-.438-1.497a2.826 2.826 0 0 0-1.047-.855 11.43 11.43 0 0 0-1.569-.57 11.586 11.586 0 0 1-1.096-.377 1.99 1.99 0 0 1-.65-.428.9.9 0 0 1-.262-.662c0-.38.115-.67.346-.87.231-.2.54-.299.927-.299.443 0 .798.112 1.067.335.258.214.4.482.428.805l.003.043h2.178l-.005-.06c-.077-.865-.427-1.54-1.049-2.028-.636-.499-1.463-.748-2.481-.748Zm10.684 0c-.924 0-1.772.219-2.545.655a4.87 4.87 0 0 0-1.838 1.817c-.452.775-.679 1.646-.679 2.615 0 .979.227 1.855.679 2.63a4.871 4.871 0 0 0 1.838 1.816 5.081 5.081 0 0 0 2.545.656c.924 0 1.772-.219 2.545-.656a4.818 4.818 0 0 0 1.831-1.817c.448-.774.672-1.65.672-2.629 0-.969-.224-1.84-.672-2.615a4.827 4.827 0 0 0-1.824-1.816 5.07 5.07 0 0 0-2.552-.656Zm-16.632.143h-1.979V16h1.979V6.053Zm16.632 1.652c.594 0 1.117.133 1.57.4.452.265.806.648 1.06 1.147.255.498.382 1.08.382 1.745s-.127 1.25-.382 1.753c-.254.504-.608.89-1.06 1.161-.453.271-.976.406-1.57.406-.594 0-1.119-.135-1.576-.406a2.76 2.76 0 0 1-1.068-1.161c-.254-.503-.382-1.088-.382-1.753 0-.665.128-1.247.382-1.745.255-.5.61-.882 1.068-1.148.457-.266.982-.399 1.576-.399Z" fill="#fff"/><path d="M181.456 4.32v-.996h2.256V12h-1.104V4.32h-1.152Zm4.132 3.252c0-1.376.224-2.448.672-3.216.448-.776 1.232-1.164 2.352-1.164 1.112 0 1.892.388 2.34 1.164.448.768.672 1.84.672 3.216 0 1.4-.224 2.488-.672 3.264-.448.776-1.228 1.164-2.34 1.164-1.12 0-1.904-.388-2.352-1.164-.448-.776-.672-1.864-.672-3.264Zm4.956 0c0-.696-.048-1.284-.144-1.764-.088-.488-.276-.88-.564-1.176-.28-.296-.688-.444-1.224-.444-.544 0-.96.148-1.248.444-.28.296-.468.688-.564 1.176-.088.48-.132 1.068-.132 1.764 0 .72.044 1.324.132 1.812.096.488.284.88.564 1.176.288.296.704.444 1.248.444.536 0 .944-.148 1.224-.444.288-.296.476-.688.564-1.176.096-.488.144-1.092.144-1.812Zm2.579 0c0-1.376.224-2.448.672-3.216.448-.776 1.232-1.164 2.352-1.164 1.112 0 1.892.388 2.34 1.164.448.768.672 1.84.672 3.216 0 1.4-.224 2.488-.672 3.264-.448.776-1.228 1.164-2.34 1.164-1.12 0-1.904-.388-2.352-1.164-.448-.776-.672-1.864-.672-3.264Zm4.956 0c0-.696-.048-1.284-.144-1.764-.088-.488-.276-.88-.564-1.176-.28-.296-.688-.444-1.224-.444-.544 0-.96.148-1.248.444-.28.296-.468.688-.564 1.176-.088.48-.132 1.068-.132 1.764 0 .72.044 1.324.132 1.812.096.488.284.88.564 1.176.288.296.704.444 1.248.444.536 0 .944-.148 1.224-.444.288-.296.476-.688.564-1.176.096-.488.144-1.092.144-1.812Z" fill="#fff"/></svg>