<svg width="143" height="42" fill="none" xmlns="http://www.w3.org/2000/svg"><path d="M0 14C0 6.268 6.268 0 14 0h115c7.732 0 14 6.268 14 14v14c0 7.732-6.268 14-14 14H14C6.268 42 0 35.732 0 28V14Z" fill="#fff"/><g clip-path="url(#a)" stroke="#000" stroke-width="12.583" stroke-linecap="round" stroke-linejoin="round"><path d="M20 10.514c5.791 0 10.486 4.695 10.486 10.486S25.791 31.486 20 31.486 9.514 26.791 9.514 21 14.209 10.514 20 10.514ZM22.422 16.805l6.02 10.424M17.578 16.805h12.038M15.155 21l6.02-10.423M17.578 25.194l-6.02-10.423M22.422 25.195H10.384M24.845 21l-6.02 10.423"/></g><path d="m48.66 24-2.49-4.275h-1.65V24h-1.365V13.545h3.375c.79 0 1.455.135 1.995.405.55.27.96.635 1.23 1.095.27.46.405.985.405 1.575 0 .72-.21 1.355-.63 1.905-.41.55-1.03.915-1.86 1.095L50.295 24H48.66Zm-4.14-5.37h2.01c.74 0 1.295-.18 1.665-.54.37-.37.555-.86.555-1.47 0-.62-.185-1.1-.555-1.44-.36-.34-.915-.51-1.665-.51h-2.01v3.96Zm15.661.945c0 .26-.015.535-.045.825h-6.57c.05.81.325 1.445.825 1.905.51.45 1.125.675 1.845.675.59 0 1.08-.135 1.47-.405.4-.28.68-.65.84-1.11h1.47a3.57 3.57 0 0 1-1.32 1.935c-.66.49-1.48.735-2.46.735-.78 0-1.48-.175-2.1-.525a3.743 3.743 0 0 1-1.44-1.485c-.35-.65-.525-1.4-.525-2.25 0-.85.17-1.595.51-2.235.34-.64.815-1.13 1.425-1.47.62-.35 1.33-.525 2.13-.525.78 0 1.47.17 2.07.51.6.34 1.06.81 1.38 1.41.33.59.495 1.26.495 2.01Zm-1.41-.285c0-.52-.115-.965-.345-1.335a2.171 2.171 0 0 0-.945-.855c-.39-.2-.825-.3-1.305-.3-.69 0-1.28.22-1.77.66-.48.44-.755 1.05-.825 1.83h5.19Zm3.102.57c0-.84.17-1.575.51-2.205.34-.64.805-1.135 1.395-1.485.6-.35 1.265-.525 1.995-.525.72 0 1.345.155 1.875.465.53.31.925.7 1.185 1.17v-1.5h1.38V24h-1.38v-1.53c-.27.48-.675.88-1.215 1.2-.53.31-1.15.465-1.86.465-.73 0-1.39-.18-1.98-.54a3.787 3.787 0 0 1-1.395-1.515c-.34-.65-.51-1.39-.51-2.22Zm6.96.015c0-.62-.125-1.16-.375-1.62-.25-.46-.59-.81-1.02-1.05a2.676 2.676 0 0 0-1.395-.375c-.51 0-.975.12-1.395.36-.42.24-.755.59-1.005 1.05-.25.46-.375 1-.375 1.62 0 .63.125 1.18.375 1.65.25.46.585.815 1.005 1.065.42.24.885.36 1.395.36s.975-.12 1.395-.36c.43-.25.77-.605 1.02-1.065.25-.47.375-1.015.375-1.635Zm3.576-.015c0-.84.17-1.575.51-2.205.34-.64.806-1.135 1.395-1.485.6-.35 1.27-.525 2.01-.525.64 0 1.236.15 1.785.45.55.29.97.675 1.26 1.155V12.9h1.38V24h-1.38v-1.545c-.27.49-.67.895-1.2 1.215-.53.31-1.15.465-1.86.465-.73 0-1.394-.18-1.995-.54a3.787 3.787 0 0 1-1.394-1.515c-.34-.65-.51-1.39-.51-2.22Zm6.96.015c0-.62-.124-1.16-.374-1.62-.25-.46-.59-.81-1.02-1.05a2.676 2.676 0 0 0-1.395-.375c-.51 0-.975.12-1.395.36-.42.24-.755.59-1.005 1.05-.25.46-.376 1-.376 1.62 0 .63.126 1.18.376 1.65.25.46.584.815 1.004 1.065.42.24.886.36 1.395.36.51 0 .976-.12 1.396-.36.43-.25.77-.605 1.02-1.065.25-.47.374-1.015.374-1.635ZM97.74 15.63c.64 0 1.21.135 1.71.405.5.26.895.655 1.185 1.185.29.53.435 1.175.435 1.935V24h-1.35v-4.65c0-.82-.205-1.445-.615-1.875-.4-.44-.945-.66-1.635-.66-.71 0-1.275.23-1.695.69-.42.45-.63 1.105-.63 1.965V24h-1.35v-4.65c0-.82-.205-1.445-.615-1.875-.4-.44-.945-.66-1.635-.66-.71 0-1.275.23-1.695.69-.42.45-.63 1.105-.63 1.965V24h-1.365v-8.22h1.365v1.185c.27-.43.63-.76 1.08-.99a3.34 3.34 0 0 1 1.515-.345c.69 0 1.3.155 1.83.465.53.31.925.765 1.185 1.365.23-.58.61-1.03 1.14-1.35.53-.32 1.12-.48 1.77-.48Zm9.554 8.505a4.25 4.25 0 0 1-2.1-.525 3.816 3.816 0 0 1-1.47-1.485c-.35-.65-.525-1.4-.525-2.25 0-.84.18-1.58.54-2.22.37-.65.87-1.145 1.5-1.485.63-.35 1.335-.525 2.115-.525.78 0 1.485.175 2.115.525.63.34 1.125.83 1.485 1.47.37.64.555 1.385.555 2.235 0 .85-.19 1.6-.57 2.25a3.862 3.862 0 0 1-1.515 1.485c-.64.35-1.35.525-2.13.525Zm0-1.2c.49 0 .95-.115 1.38-.345.43-.23.775-.575 1.035-1.035.27-.46.405-1.02.405-1.68 0-.66-.13-1.22-.39-1.68-.26-.46-.6-.8-1.02-1.02a2.796 2.796 0 0 0-1.365-.345c-.5 0-.96.115-1.38.345-.41.22-.74.56-.99 1.02-.25.46-.375 1.02-.375 1.68 0 .67.12 1.235.36 1.695.25.46.58.805.99 1.035.41.22.86.33 1.35.33Zm7.775-5.82c.24-.47.58-.835 1.02-1.095.45-.26.995-.39 1.635-.39v1.41h-.36c-1.53 0-2.295.83-2.295 2.49V24h-1.365v-8.22h1.365v1.335Zm12.131 2.46c0 .26-.015.535-.045.825h-6.57c.05.81.325 1.445.825 1.905.51.45 1.125.675 1.845.675.59 0 1.08-.135 1.47-.405.4-.28.68-.65.84-1.11h1.47a3.57 3.57 0 0 1-1.32 1.935c-.66.49-1.48.735-2.46.735-.78 0-1.48-.175-2.1-.525a3.743 3.743 0 0 1-1.44-1.485c-.35-.65-.525-1.4-.525-2.25 0-.85.17-1.595.51-2.235.34-.64.815-1.13 1.425-1.47.62-.35 1.33-.525 2.13-.525.78 0 1.47.17 2.07.51.6.34 1.06.81 1.38 1.41.33.59.495 1.26.495 2.01Zm-1.41-.285c0-.52-.115-.965-.345-1.335a2.171 2.171 0 0 0-.945-.855c-.39-.2-.825-.3-1.305-.3-.69 0-1.28.22-1.77.66-.48.44-.755 1.05-.825 1.83h5.19Z" fill="#000"/><defs><clipPath id="a"><path fill="#fff" transform="translate(4 5)" d="M0 0h32v32H0z"/></clipPath></defs></svg>